HIERARCHY
ROOT Hips
{
	OFFSET 0.00000 0.00000 0.00000
	CHANNELS 6 Xposition Yposition Zposition Yrotation Zrotation Xrotation 
	JOINT Lumbar
	{
		OFFSET 0 0 0
		CHANNELS 3 Zrotation Xrotation Yrotation
		JOINT Neck
		{
			OFFSET 0.00 0.2701 0.00
			CHANNELS 3 Zrotation Xrotation Yrotation
			End Site
			{
				OFFSET 0.00 0.1379 0.00
			}
		}
		JOINT RightShoulder
		{
			OFFSET 0.0119 0.2289 0.1181
			CHANNELS 3 Zrotation Xrotation Yrotation
			JOINT RightElbow
			{
				OFFSET 0.00 -0.1475 0.00
				CHANNELS 2 Zrotation Yrotation
				JOINT RightWrist
				{
					OFFSET 0.00 -0.1605 0.00
					CHANNELS 2 Zrotation Xrotation
					End Site
					{
						OFFSET 0.0040 -0.1068 0.0006
					}
				}
			}
		}
		JOINT LeftShoulder
		{
			OFFSET 0.0119 0.2289 -0.1181
			CHANNELS 3 Zrotation Xrotation Yrotation
			JOINT LeftElbow
			{
				OFFSET 0.00 -0.1475 0.00
				CHANNELS 2 Zrotation Yrotation
				JOINT LeftWrist
				{
					OFFSET 0.00 -0.1605 0.00
					CHANNELS 2 Zrotation Xrotation
					End Site
					{
						OFFSET 0.0040 -0.1068 -0.0006
					}
				}
			}
		}
	}
	JOINT RightHip
	{
		OFFSET 0.0316 -0.0424 0.0458
		CHANNELS 3 Zrotation Xrotation Yrotation
		JOINT RightKnee
		{
			OFFSET 0.00 -0.2438 0.00
			CHANNELS 1 Zrotation
			JOINT RightAnkle
			{
				OFFSET 0.00 -0.2449 0.00
				CHANNELS 3 Zrotation Xrotation Yrotation
				End Site
				{
					OFFSET 0.1237 -0.0542 0.0051
				}
			}
		}
	}
	JOINT LeftHip
	{
		OFFSET 0.0316 -0.0424 -0.0458
		CHANNELS 3 Zrotation Xrotation Yrotation
		JOINT LeftKnee
		{
			OFFSET 0.00 -0.2438 0.00
			CHANNELS 1 Zrotation
			JOINT LeftAnkle
			{
				OFFSET 0.00 -0.2449 0.00
				CHANNELS 3 Zrotation Xrotation Yrotation
				End Site
				{
					OFFSET 0.1237 -0.0542 -0.0051
				}
			}
		}
	}
}
MOTION
Frames: 22
Frame Time: 0.02
0.00145 0.00052 -0.00026 -173.0614 -39.3006 0.67163 43.79311 2.98073 0.18797 15.03738 -8.71402 -0.13524 28.26949 -11.17653 18.19643 32.01552 83.947 1.16355 -1.48998 33.05591 5.92818 -20.26722 43.96968 -81.25691 -1.94642 1.58343 42.99009 -0.2747 -1.88829 -19.89108 -6.65608 -4.07641 -2.77658 49.32011 3.46005 2.7853 -24.70367 -7.22635 1.25269 1.2848
0.00119 0.00039 -0.0007 -172.99684 -39.30528 0.70811 43.87091 2.99926 0.3043 14.55495 -8.47783 -0.13636 26.68252 -11.21531 17.33192 31.64078 83.96309 1.21246 -1.45611 30.50784 6.42987 -19.81653 44.16582 -81.32072 -1.97883 1.44388 42.97365 -0.29338 -2.11361 -19.91014 -6.64023 -4.05147 -2.76198 49.31185 3.45278 2.67905 -24.70531 -7.22015 1.25982 1.28813
0.00094 0.00026 -0.00113 -172.93248 -39.30999 0.74451 43.94864 3.01781 0.42013 14.07316 -8.24225 -0.13748 25.09693 -11.25408 16.46797 31.26675 83.9792 1.26108 -1.42224 27.9625 6.93029 -19.36514 44.36078 -81.38326 -2.01173 1.30452 42.95719 -0.31205 -2.33856 -19.92912 -6.6244 -4.02657 -2.74739 49.30357 3.44548 2.57282 -24.70694 -7.21395 1.26698 1.29148
0.00069 0.00013 -0.00156 -172.86812 -39.31467 0.78088 44.02622 3.03629 0.53609 13.59209 -8.00677 -0.1386 23.51434 -11.29278 15.60589 30.89309 83.99514 1.3098 -1.38851 25.42149 7.43058 -18.9157 44.55623 -81.447 -2.04403 1.1654 42.9408 -0.3307 -2.56328 -19.94812 -6.60859 -4.00169 -2.73282 49.29533 3.43822 2.46685 -24.70857 -7.20776 1.27409 1.2948
0.00044 -0 -0.00199 -172.80356 -39.31931 0.81731 44.10383 3.05474 0.65258 13.11067 -7.77075 -0.13972 21.93154 -11.3314 14.74371 30.5189 84.01135 1.3589 -1.35467 22.87954 7.93178 -18.46719 44.75307 -81.51156 -2.07591 1.02606 42.92443 -0.34931 -2.78815 -19.9672 -6.59275 -3.9768 -2.71825 49.28712 3.43102 2.36098 -24.71021 -7.20161 1.28115 1.29809
0.00018 -0.00013 -0.00241 -172.73963 -39.32417 0.85367 44.18179 3.0735 0.76703 12.6281 -7.53613 -0.14084 20.34013 -11.37043 13.87592 30.14523 84.02744 1.40657 -1.32065 20.32719 8.43038 -18.0095 44.94407 -81.56942 -2.11113 0.88658 42.9078 -0.36809 -3.01317 -19.98596 -6.57694 -3.95187 -2.70362 49.27868 3.4235 2.25403 -24.71183 -7.1953 1.28853 1.30154
-7e-05 -0.00026 -0.00285 -172.67452 -39.32858 0.89011 44.25892 3.0916 0.88551 12.14848 -7.29888 -0.14196 18.76818 -11.40878 13.02125 29.7709 84.04292 1.45692 -1.28743 17.79898 8.93433 -17.57218 45.14661 -81.64286 -2.13882 0.74786 42.89174 -0.38657 -3.23792 -20.00535 -6.5611 -3.92703 -2.68912 49.27075 3.41663 2.14932 -24.71348 -7.1893 1.29526 1.30467
-0.00032 -0.00039 -0.00328 -172.61045 -39.3334 0.9265 44.33689 3.11031 1.00016 11.66594 -7.06417 -0.14308 17.1776 -11.44743 12.15287 29.39724 84.06049 1.50507 -1.25276 15.24777 9.43214 -17.11355 45.3385 -81.69797 -2.17485 0.60787 42.8751 -0.40524 -3.46241 -20.02415 -6.5453 -3.90215 -2.67453 49.26229 3.40918 2.04263 -24.7151 -7.18302 1.30257 1.30809
-0.00058 -0.00052 -0.0037 -172.5478 -39.33875 0.96276 44.41566 3.12977 1.11058 11.18026 -6.832 -0.14419 15.56568 -11.48776 11.27342 29.02392 84.07457 1.54944 -1.21908 12.6694 9.92746 -16.63832 45.51738 -81.74628 -2.21566 0.4685 42.85795 -0.42451 -3.68877 -20.04227 -6.52948 -3.87702 -2.6597 49.25338 3.40093 1.93309 -24.71673 -7.17637 1.31067 1.31191
-0.0008 -0.00065 -0.00415 -172.47741 -39.34113 0.99959 44.48915 3.14492 1.2467 10.71393 -6.58353 -0.14532 14.08071 -11.52237 10.4747 28.6472 84.09056 1.61228 -1.18801 10.24996 10.45222 -16.28694 45.77114 -81.88058 -2.21269 0.33208 42.84432 -0.44141 -3.91094 -20.06444 -6.51356 -3.85275 -2.64583 49.24766 3.39698 1.83866 -24.71841 -7.17177 1.31447 1.31356
-0.00111 -0.00078 -0.00455 -172.42311 -39.34972 1.03531 44.57417 3.16918 1.32773 10.2061 -6.37055 -0.14643 12.32576 -11.56651 9.49503 28.27862 84.11409 1.63824 -1.14617 7.49428 10.90517 -15.65642 45.86695 -81.80362 -2.31244 0.18527 42.8229 -0.46261 -4.13772 -20.07796 -6.49799 -3.82704 -2.63021 49.23485 3.38415 1.71321 -24.71992 -7.1629 1.32719 1.31971
-0.00164 -0.00091 -0.00486 -172.41573 -39.37623 1.06714 44.68823 3.21869 1.26388 9.58827 -6.24693 -0.14754 9.83915 -11.65817 8.10168 27.92446 84.06326 1.54513 -1.11901 3.81303 11.24105 -14.40561 45.52512 -81.4208 -2.59879 0.04496 42.783 -0.50166 -4.41331 -20.06847 -6.48223 -3.79401 -2.60743 49.2055 3.34532 1.49484 -24.72162 -7.14159 1.36588 1.33891
-0.00225 -0.00103 -0.00512 -172.42417 -39.40891 1.09802 44.81437 3.27733 1.1439 8.92815 -6.16044 -0.14865 7.08029 -11.75562 6.51247 27.58003 84.03736 1.41855 -1.07384 -0.20438 11.49162 -12.8529 45.02581 -80.79947 -2.99682 -0.11149 42.73489 -0.54405 -4.68767 -20.05018 -6.46701 -3.76006 -2.58325 49.16859 3.29792 1.24693 -24.72305 -7.11611 1.41325 1.3625
-0.00284 -0.00115 -0.00541 -172.42335 -39.43811 1.1299 44.93664 3.33159 1.04509 8.28468 -6.06223 -0.14975 4.43923 -11.83628 4.95716 27.23614 84.0625 1.31864 -1.00675 -4.0675 11.72688 -11.33618 44.60086 -80.0773 -3.41761 -0.28444 42.68843 -0.58075 -4.93787 -20.03539 -6.45229 -3.72889 -2.56131 49.13307 3.25544 1.01742 -24.72419 -7.09297 1.45568 1.38361
-0.00337 -0.00128 -0.00569 -172.43064 -39.46984 1.15937 45.05203 3.38676 0.96308 7.65147 -5.94237 -0.15086 1.82018 -11.97606 3.62901 26.87082 83.82555 1.16927 -1.06257 -7.94201 12.18354 -10.22368 44.16235 -80.13752 -3.5658 -0.36009 42.65011 -0.63443 -5.28891 -20.02259 -6.4345 -3.68818 -2.53286 49.10569 3.20839 0.76617 -24.72708 -7.06792 1.50231 1.40675
-0.00403 -0.0014 -0.00597 -172.42565 -39.49821 1.19364 45.18468 3.44231 0.83454 6.98748 -5.87636 -0.15196 -0.90614 -11.99491 1.7877 26.55306 84.13894 1.11626 -0.86331 -11.86707 12.16729 -8.22584 43.71658 -78.63755 -4.26117 -0.6381 42.59369 -0.65433 -5.434 -20.00369 -6.42312 -3.66658 -2.5173 49.06018 3.1691 0.55405 -24.72626 -7.04588 1.54226 1.42673
-0.00504 -0.00148 -0.00627 -172.37542 -39.51189 1.24152 45.36097 3.49577 0.57641 6.24431 -5.95016 -0.15305 -3.88622 -11.67271 -1.47008 26.35918 85.97132 1.32571 0.07912 -15.89209 10.79361 -3.61667 43.27489 -71.77827 -6.85401 -1.50571 42.48257 -0.57341 -4.9736 -19.96921 -6.43048 -3.70273 -2.54067 48.96116 3.15096 0.44992 -24.71516 -7.03292 1.56147 1.43673
-0.00616 -0.00155 -0.00656 -172.31361 -39.52266 1.29424 45.55418 3.54952 0.27632 5.47288 -6.07679 -0.15412 -6.95924 -11.23076 -5.22369 26.21383 88.35051 1.63465 1.2687 -19.94663 8.96053 1.82806 42.83453 -63.54247 -9.92393 -2.5695 42.3548 -0.4597 -4.31321 -19.92909 -6.44408 -3.75723 -2.57649 48.84516 3.14131 0.38742 -24.70036 -7.02318 1.57369 1.44343
-0.00722 -0.00162 -0.00687 -172.26207 -39.53739 1.34468 45.74062 3.60365 0.00498 4.71685 -6.17911 -0.15519 -9.97503 -10.84601 -8.72539 26.04947 90.48235 1.90693 2.31788 -23.96171 7.3853 6.73241 42.40247 -56.69231 -12.49439 -3.5212 42.23905 -0.36536 -3.76833 -19.89215 -6.45408 -3.80028 -2.6047 48.74037 3.1294 0.31088 -24.68734 -7.01212 1.58921 1.45176
-0.00833 -0.0017 -0.00714 -172.19021 -39.54141 1.39547 45.92451 3.65572 -0.30984 3.94687 -6.28412 -0.15628 -13.06776 -10.44528 -12.36631 25.87228 92.63137 2.14554 3.4898 -28.10536 5.59982 12.32556 41.92541 -46.71467 -16.23096 -4.57198 42.10416 -0.25204 -3.1182 -19.85226 -6.46732 -3.8566 -2.64119 48.62046 3.11068 0.21333 -24.67391 -7.00027 1.60448 1.45971
-0.00937 -0.00176 -0.00747 -172.1574 -39.56671 1.44666 46.11639 3.71231 -0.54254 3.20188 -6.39545 -0.15735 -16.01355 -10.05489 -15.80712 25.73361 94.84758 2.47383 4.46007 -31.9752 4.1444 16.67854 41.54682 -42.81475 -17.68956 -5.46065 42.00535 -0.17069 -2.64136 -19.81732 -6.4753 -3.88945 -2.66332 48.52826 3.108 0.169 -24.66044 -6.99095 1.61853 1.4676
-0.01019 -0.00174 -0.00793 -172.23763 -39.65361 1.49789 46.33607 3.77899 -0.54431 2.51558 -6.51217 -0.15832 -18.57036 -9.67354 -18.79491 25.68581 97.347 3.06382 4.85225 -35.1516 3.71434 17.39693 41.4221 -57.0025 -12.40583 -5.87084 42.00978 -0.18326 -2.67778 -19.79724 -6.46698 -3.85488 -2.64349 48.51554 3.14972 0.26851 -24.64802 -6.98736 1.63065 1.47623
